# xmcd
#
# Track frame offsets: 
#        150
#        12736
#        27889
#        41681
#        64655
#        83667
#        98152
#        113574
#        140564
#        162055
#        179923
#        200781
#        220676
#        241943
#        282839
#        300640
#        315121
#        329935
#
# Disc length: 4587 seconds
#
# Revision: 4
# Processed by: cddbd v1.5.2PL0 Copyright (c) Steve Scherf et al.
# Submitted via: ExactAudioCopyFreeDBPlugin 1.0
#
DISCID=0011e912
DTITLE=Syl Johnson - The Complete Syl Johnson On Hi Records [CD2]
DYEAR=2000
DGENRE=Rhythm and Blues
TTITLE0=Watch What You Do to Me
TTITLE1=Steppin' Out
TTITLE2=Take Me to the River
TTITLE3=It Ain't Easy
TTITLE4='Bout to Make Me Leave Home
TTITLE5=That's Just My Luck
TTITLE6=Come on Home
TTITLE7=Mystery Lady
TTITLE8=Let's Dance for Love
TTITLE9=Gimme Little Sign
TTITLE10=You're the Star of the Show
TTITLE11=Blue Water
TTITLE12=Who's Gonna Love You?
TTITLE13=Otis Redding Medley
TTITLE14=Fonk You
TTITLE15=That Wiggle
TTITLE16=Stand By Me
TTITLE17=Mainsqueeze
EXTD=
EXTT0=
EXTT1=
EXTT2=
EXTT3=
EXTT4=
EXTT5=
EXTT6=
EXTT7=
EXTT8=
EXTT9=
EXTT10=
EXTT11=
EXTT12=
EXTT13=
EXTT14=
EXTT15=
EXTT16=
EXTT17=
PLAYORDER=
